<svg width="17" height="16" viewBox="0 0 17 16" fill="none" xmlns="http://www.w3.org/2000/svg">
<mask id="path-1-inside-1_2043_143" fill="white">
<path d="M8.17425 0.0103007C10.0902 -0.136264 11.7628 1.29846 11.9096 3.2144C11.9219 3.3758 11.921 3.53575 11.9116 3.69292C12.1411 3.62558 12.3813 3.58104 12.6293 3.56206C14.5454 3.41556 16.2171 4.85009 16.3637 6.76616C16.4827 8.32202 15.5593 9.71617 14.1821 10.2642C14.5445 10.7661 14.7779 11.3712 14.8285 12.0337C14.975 13.9497 13.5404 15.6214 11.6244 15.7681C10.3628 15.8646 9.20714 15.2756 8.52288 14.315C7.94493 15.1268 7.02483 15.686 5.95354 15.7681C4.03742 15.9147 2.36481 14.4801 2.21819 12.564C2.15354 11.7178 2.39652 10.9185 2.85393 10.2779C1.64215 9.80945 0.743026 8.67908 0.637137 7.29741C0.490542 5.38127 1.9251 3.70865 3.84124 3.56206C4.22956 3.5324 4.60766 3.56865 4.96526 3.65971C4.86727 1.77987 6.28699 0.154889 8.17425 0.0103007Z"/>
</mask>
<g filter="url(#filter0_i_2043_143)">
<path d="M8.17425 0.0103007C10.0902 -0.136264 11.7628 1.29846 11.9096 3.2144C11.9219 3.3758 11.921 3.53575 11.9116 3.69292C12.1411 3.62558 12.3813 3.58104 12.6293 3.56206C14.5454 3.41556 16.2171 4.85009 16.3637 6.76616C16.4827 8.32202 15.5593 9.71617 14.1821 10.2642C14.5445 10.7661 14.7779 11.3712 14.8285 12.0337C14.975 13.9497 13.5404 15.6214 11.6244 15.7681C10.3628 15.8646 9.20714 15.2756 8.52288 14.315C7.94493 15.1268 7.02483 15.686 5.95354 15.7681C4.03742 15.9147 2.36481 14.4801 2.21819 12.564C2.15354 11.7178 2.39652 10.9185 2.85393 10.2779C1.64215 9.80945 0.743026 8.67908 0.637137 7.29741C0.490542 5.38127 1.9251 3.70865 3.84124 3.56206C4.22956 3.5324 4.60766 3.56865 4.96526 3.65971C4.86727 1.77987 6.28699 0.154889 8.17425 0.0103007Z" fill="url(#paint0_linear_2043_143)"/>
</g>
<path d="M8.17425 0.0103007L8.08437 -1.16467L8.08423 -1.16466L8.17425 0.0103007ZM11.9096 3.2144L13.0846 3.12453L13.0846 3.12439L11.9096 3.2144ZM11.9116 3.69292L10.7353 3.62232L10.6349 5.29551L12.2433 4.82367L11.9116 3.69292ZM12.6293 3.56206L12.5395 2.38708L12.5394 2.38709L12.6293 3.56206ZM16.3637 6.76616L17.5387 6.67629L17.5387 6.67626L16.3637 6.76616ZM14.1821 10.2642L13.7464 9.1693L12.3415 9.72832L13.2267 10.9541L14.1821 10.2642ZM14.8285 12.0337L16.0035 11.9439L16.0035 11.9438L14.8285 12.0337ZM11.6244 15.7681L11.7143 16.9431L11.7144 16.9431L11.6244 15.7681ZM8.52288 14.315L9.48267 13.6313L8.52259 12.2835L7.56289 13.6316L8.52288 14.315ZM5.95354 15.7681L6.04343 16.9431L6.04359 16.9431L5.95354 15.7681ZM2.21819 12.564L1.04321 12.6538L1.04322 12.6539L2.21819 12.564ZM2.85393 10.2779L3.81297 10.9626L4.69562 9.72642L3.27882 9.17874L2.85393 10.2779ZM0.637137 7.29741L-0.537833 7.3873L-0.537821 7.38746L0.637137 7.29741ZM3.84124 3.56206L3.7515 2.38708L3.75135 2.38709L3.84124 3.56206ZM4.96526 3.65971L4.67447 4.80167L6.22538 5.19661L6.14207 3.59837L4.96526 3.65971ZM8.17425 0.0103007L8.26413 1.18527C9.53127 1.08834 10.6376 2.03733 10.7346 3.30441L11.9096 3.2144L13.0846 3.12439C12.8881 0.55958 10.6492 -1.36087 8.08437 -1.16467L8.17425 0.0103007ZM11.9096 3.2144L10.7346 3.30427C10.7421 3.40235 10.7421 3.50767 10.7353 3.62232L11.9116 3.69292L13.0878 3.76351C13.0998 3.56384 13.1018 3.34924 13.0846 3.12453L11.9096 3.2144ZM11.9116 3.69292L12.2433 4.82367C12.3943 4.77935 12.5535 4.74971 12.7192 4.73703L12.6293 3.56206L12.5394 2.38709C12.2091 2.41236 11.8878 2.47181 11.5798 2.56217L11.9116 3.69292ZM12.6293 3.56206L12.7192 4.73703C13.9861 4.64016 15.0918 5.5887 15.1887 6.85606L16.3637 6.76616L17.5387 6.67626C17.3424 4.11148 15.1046 2.19096 12.5395 2.38708L12.6293 3.56206ZM16.3637 6.76616L15.1887 6.85603C15.2673 7.88293 14.6585 8.80635 13.7464 9.1693L14.1821 10.2642L14.6177 11.3591C16.4601 10.626 17.6981 8.76112 17.5387 6.67629L16.3637 6.76616ZM14.1821 10.2642L13.2267 10.9541C13.4659 11.2853 13.6199 11.6839 13.6536 12.1236L14.8285 12.0337L16.0035 11.9438C15.9358 11.0586 15.6231 10.2469 15.1374 9.57431L14.1821 10.2642ZM14.8285 12.0337L13.6536 12.1235C13.7504 13.3905 12.8018 14.4961 11.5345 14.5931L11.6244 15.7681L11.7144 16.9431C14.279 16.7468 16.1995 14.509 16.0035 11.9439L14.8285 12.0337ZM11.6244 15.7681L11.5346 14.5931C10.7017 14.6569 9.93738 14.2696 9.48267 13.6313L8.52288 14.315L7.56308 14.9987C8.47691 16.2816 10.0238 17.0724 11.7143 16.9431L11.6244 15.7681ZM8.52288 14.315L7.56289 13.6316C7.17874 14.1712 6.57119 14.5389 5.8635 14.5932L5.95354 15.7681L6.04359 16.9431C7.47847 16.8331 8.71113 16.0825 9.48287 14.9984L8.52288 14.315ZM5.95354 15.7681L5.86365 14.5931C4.59632 14.6901 3.49012 13.7412 3.39316 12.4741L2.21819 12.564L1.04322 12.6539C1.23951 15.2191 3.47853 17.1393 6.04343 16.9431L5.95354 15.7681ZM2.21819 12.564L3.39317 12.4742C3.35027 11.9127 3.51068 11.386 3.81297 10.9626L2.85393 10.2779L1.8949 9.59313C1.28236 10.451 0.956807 11.5228 1.04321 12.6538L2.21819 12.564ZM2.85393 10.2779L3.27882 9.17874C2.47424 8.86772 1.88196 8.119 1.81209 7.20736L0.637137 7.29741L-0.537821 7.38746C-0.395909 9.23917 0.810063 10.7512 2.42905 11.377L2.85393 10.2779ZM0.637137 7.29741L1.81211 7.20752C1.71515 5.94015 2.66406 4.83397 3.93113 4.73703L3.84124 3.56206L3.75135 2.38709C1.18614 2.58334 -0.734061 4.8224 -0.537833 7.3873L0.637137 7.29741ZM3.84124 3.56206L3.93097 4.73704C4.1878 4.71743 4.43741 4.74131 4.67447 4.80167L4.96526 3.65971L5.25606 2.51775C4.7779 2.39599 4.27132 2.34738 3.7515 2.38708L3.84124 3.56206ZM4.96526 3.65971L6.14207 3.59837C6.07727 2.35545 7.01659 1.28085 8.26426 1.18526L8.17425 0.0103007L8.08423 -1.16466C5.55739 -0.971071 3.65726 1.2043 3.78846 3.72106L4.96526 3.65971Z" fill="url(#paint1_linear_2043_143)" mask="url(#path-1-inside-1_2043_143)"/>
<defs>
<filter id="filter0_i_2043_143" x="0.626831" y="0" width="15.7472" height="18.1352" filterUnits="userSpaceOnUse" color-interpolation-filters="sRGB">
<feFlood flood-opacity="0" result="BackgroundImageFix"/>
<feBlend mode="normal" in="SourceGraphic" in2="BackgroundImageFix" result="shape"/>
<feColorMatrix in="SourceAlpha" type="matrix" values="0 0 0 0 0 0 0 0 0 0 0 0 0 0 0 0 0 0 127 0" result="hardAlpha"/>
<feOffset dy="2.35681"/>
<feGaussianBlur stdDeviation="1.1784"/>
<feComposite in2="hardAlpha" operator="arithmetic" k2="-1" k3="1"/>
<feColorMatrix type="matrix" values="0 0 0 0 0.321569 0 0 0 0 0.0156863 0 0 0 0 0.313726 0 0 0 1 0"/>
<feBlend mode="normal" in2="shape" result="effect1_innerShadow_2043_143"/>
</filter>
<linearGradient id="paint0_linear_2043_143" x1="5.44855" y1="1.76123e-07" x2="13.9099" y2="15.7781" gradientUnits="userSpaceOnUse">
<stop stop-color="#9D3C48"/>
<stop offset="1" stop-color="#61153A"/>
</linearGradient>
<linearGradient id="paint1_linear_2043_143" x1="8.50042" y1="0" x2="16.3746" y2="17.4115" gradientUnits="userSpaceOnUse">
<stop stop-color="#F1C56F"/>
<stop offset="1" stop-color="#BA762D"/>
</linearGradient>
</defs>
</svg>
